<?xml version="1.0" encoding="UTF-8" standalone="no" ?>
<!DOCTYPE svg PUBLIC "-//W3C//DTD SVG 1.1//EN" "http://www.w3.org/Graphics/SVG/1.1/DTD/svg11.dtd">
<svg xmlns="http://www.w3.org/2000/svg" xmlns:xlink="http://www.w3.org/1999/xlink" version="1.1" width="1080" height="1080" viewBox="0 0 1080 1080" xml:space="preserve">
<desc>Created with Fabric.js 4.2.0</desc>
<defs>
</defs>
<g transform="matrix(1 0 0 1 540 540)" id="eba11801-ae7a-4a82-9b27-b88421b5bef7"  >
</g>
<g transform="matrix(1 0 0 1 540 540)" id="8e9d1201-97b5-4223-a2da-ed6f97cb4a5e"  >
<rect style="stroke: none; stroke-width: 1; stroke-dasharray: none; stroke-linecap: butt; stroke-dashoffset: 0; stroke-linejoin: miter; stroke-miterlimit: 4; fill: rgb(255,255,255); fill-rule: nonzero; opacity: 1;" vector-effect="non-scaling-stroke"  x="-540" y="-540" rx="0" ry="0" width="1080" height="1080" />
</g>
<g transform="matrix(17.28 0 0 17.28 540 540)"  >
<path style="stroke: none; stroke-width: 1; stroke-dasharray: none; stroke-linecap: butt; stroke-dashoffset: 0; stroke-linejoin: miter; stroke-miterlimit: 4; fill: none; fill-rule: nonzero; opacity: 1;" vector-effect="non-scaling-stroke"  transform=" translate(-12, -12)" d="M 0 0 L 24 0 L 24 24 L 0 24 L 0 0 z" stroke-linecap="round" />
</g>
<g transform="matrix(17.28 0 0 17.28 545.19 543.65)"  >
<path style="stroke: none; stroke-width: 1; stroke-dasharray: none; stroke-linecap: butt; stroke-dashoffset: 0; stroke-linejoin: miter; stroke-miterlimit: 4; fill: rgb(240,133,29); fill-rule: nonzero; opacity: 1;" vector-effect="non-scaling-stroke"  transform=" translate(-12.3, -12.21)" d="M 8.1 13.34 L 10.93 10.51 L 3.91 3.5 C 2.35 5.0600000000000005 2.35 7.59 3.91 9.16 L 8.100000000000001 13.34 z M 14.879999999999999 11.53 C 16.41 12.239999999999998 18.56 11.74 20.15 10.149999999999999 C 22.06 8.239999999999998 22.43 5.499999999999998 20.959999999999997 4.0299999999999985 C 19.499999999999996 2.5699999999999985 16.759999999999998 2.9299999999999984 14.839999999999996 4.839999999999998 C 13.249999999999996 6.429999999999998 12.749999999999996 8.579999999999998 13.459999999999997 10.109999999999998 L 3.7 19.87 L 5.11 21.28 L 12 14.41 L 18.88 21.29 L 20.29 19.88 L 13.41 13 L 14.88 11.53 z" stroke-linecap="round" />
</g>
</svg>